0
SECTION
2
HEADER
9
$INSUNITS
70
4
9
$ACADVER
1
AC1014
9
$HANDSEED
5
FFFF
0
ENDSEC
0
SECTION
2
TABLES
0
TABLE
2
VPORT
5
8
100
AcDbSymbolTable
0
ENDTAB
0
TABLE
2
LTYPE
5
5
100
AcDbSymbolTable
0
LTYPE
5
14
100
AcDbSymbolTableRecord
100
AcDbLinetypeTableRecord
2
BYBLOCK
70
0
0
LTYPE
5
15
100
AcDbSymbolTableRecord
100
AcDbLinetypeTableRecord
2
BYLAYER
70
0
0
ENDTAB
0
TABLE
2
LAYER
5
2
100
AcDbSymbolTable
70
2
0
LAYER
5
50
100
AcDbSymbolTableRecord
100
AcDbLayerTableRecord
2
0
70
0
6
CONTINUOUS
0
ENDTAB
0
TABLE
2
STYLE
5
3
100
AcDbSymbolTable
70
1
0
STYLE
5
11
100
AcDbSymbolTableRecord
100
AcDbTextStyleTableRecord
2
STANDARD
70
0
0
ENDTAB
0
TABLE
2
VIEW
5
6
100
AcDbSymbolTable
70
0
0
ENDTAB
0
TABLE
2
UCS
5
7
100
AcDbSymbolTable
70
0
0
ENDTAB
0
TABLE
2
APPID
5
9
100
AcDbSymbolTable
70
2
0
APPID
5
12
100
AcDbSymbolTableRecord
100
AcDbRegAppTableRecord
2
ACAD
70
0
0
ENDTAB
0
TABLE
2
DIMSTYLE
5
A
100
AcDbSymbolTable
70
1
0
ENDTAB
0
TABLE
2
BLOCK_RECORD
5
1
100
AcDbSymbolTable
70
1
0
BLOCK_RECORD
5
1F
100
AcDbSymbolTableRecord
100
AcDbBlockTableRecord
2
*MODEL_SPACE
0
BLOCK_RECORD
5
1B
100
AcDbSymbolTableRecord
100
AcDbBlockTableRecord
2
*PAPER_SPACE
0
ENDTAB
0
ENDSEC
0
SECTION
2
BLOCKS
0
BLOCK
5
20
100
AcDbEntity
100
AcDbBlockBegin
2
*MODEL_SPACE
0
ENDBLK
5
21
100
AcDbEntity
100
AcDbBlockEnd
0
BLOCK
5
1C
100
AcDbEntity
100
AcDbBlockBegin
2
*PAPER_SPACE
0
ENDBLK
5
1D
100
AcDbEntity
100
AcDbBlockEnd
0
ENDSEC
0
SECTION
2
ENTITIES
0
CIRCLE
5
100
100
AcDbEntity
8
0
100
AcDbCircle
10
22.5
20
-22.500000000000028
30
0
40
2.0698202597128725
210
0
220
-4.9303806576313238e-32
230
1
0
CIRCLE
5
101
100
AcDbEntity
8
0
100
AcDbCircle
10
-22.5
20
22.500000000000032
30
0
40
2.0698202597128725
210
0
220
-4.9303806576313238e-32
230
1
0
LINE
5
102
100
AcDbEntity
8
0
100
AcDbLine
10
25.059483865925898
20
26.062812921755633
30
0
11
25.8631109294152
21
26.866439985244931
31
0
0
LINE
5
103
100
AcDbEntity
8
0
100
AcDbLine
10
25.8631109294152
20
26.866439985244931
30
0
11
-26.503331224463501
21
26.866439985244931
31
0
0
SPLINE
5
104
100
AcDbEntity
8
0
100
AcDbSpline
70
0
71
3
72
10
73
6
74
0
42
0.000000001
43
0.0000000001
44
0.0000000001
40
-0.056791679074928103
40
-0.056791679074928103
40
-0.056791679074928103
40
-0.056791679074928103
40
-0.032452388042815999
40
-0.016226194021408
40
0
40
0
40
0
40
0
10
-26.866439985244899
20
26.50333122446343
30
0
10
-26.866439985244899
20
26.584462194570438
30
0
10
-26.819520033681403
20
26.720183078168432
30
0
10
-26.666401218903903
20
26.841974414134238
30
0
10
-26.557418537868102
20
26.866439985244931
30
0
10
-26.503331224463402
20
26.866439985244931
30
0
0
LINE
5
105
100
AcDbEntity
8
0
100
AcDbLine
10
-26.866439985244899
20
26.50333122446343
30
0
11
-26.866439985244899
21
-25.863110929415637
31
0
0
LINE
5
106
100
AcDbEntity
8
0
100
AcDbLine
10
-26.866439985244899
20
-25.863110929415637
30
0
11
-26.062812921755505
21
-25.059483865925927
31
0
0
ARC
5
107
100
AcDbEntity
8
0
100
AcDbCircle
10
-23.5
20
-23.500000000000028
30
-1.2316099784104838e-46
40
2.9999999999999982
210
2.5629496961497091e-32
220
-4.2118810861836222e-32
230
1
100
AcDbArc
50
104.46177038279677
51
211.3207117881179
0
LINE
5
108
100
AcDbEntity
8
0
100
AcDbLine
10
-24.249201905834607
20
-20.595056540258724
30
1.4155443211430794e-31
11
-24.249202868814201
21
-19.500000659541421
31
0
0
ARC
5
109
100
AcDbEntity
8
0
100
AcDbCircle
10
-23.4992028688145
20
-19.500000000000021
30
3.2626522339992623e-54
40
0.74999999999999867
210
4.7019774032873318e-38
220
4.1348650078853299e-44
230
1
100
AcDbArc
50
5.0379879979170783e-05
51
180.00005037987998
0
LINE
5
110
100
AcDbEntity
8
0
100
AcDbLine
10
-22.749202868814791
20
-19.499999340458626
30
-3.5264830524668563e-38
11
-22.749201905471601
21
-20.595468674424026
31
0
0
ARC
5
111
100
AcDbEntity
8
0
100
AcDbCircle
10
-23.5
20
-23.500000000000028
30
-1.2316099784104838e-46
40
2.9999999999999987
210
-3.9750038959063973e-47
220
-1.0263424888510134e-47
230
1
100
AcDbArc
50
14.477524296236389
51
75.506744886985928
0
LINE
5
112
100
AcDbEntity
8
0
100
AcDbLine
10
-20.595262648868044
20
-22.749999386041011
30
0
11
-19.500000659541801
21
-22.749998422880132
31
0
0
ARC
5
113
100
AcDbEntity
8
0
100
AcDbCircle
10
-19.500000000000298
20
-23.499998422879933
30
-1.1093017595597492e-52
40
0.75000000000000311
210
4.701977403287337e-38
220
4.1348656471373451e-44
230
1
100
AcDbArc
50
-89.999949614748587
51
90.000050385259328
0
LINE
5
114
100
AcDbEntity
8
0
100
AcDbLine
10
-19.499999340458899
20
-24.249998422879649
30
4.7878649051156854e-51
11
-20.5952623318211
21
-24.249999386041328
31
0
0
ARC
5
115
100
AcDbEntity
8
0
100
AcDbCircle
10
-23.5
20
-23.500000000000028
30
-1.2316099784104838e-46
40
3.0000000000000089
210
2.1340843227164997e-47
220
3.5070955191479282e-47
230
1
100
AcDbArc
50
238.67928821187519
51
345.52249992436941
0
LINE
5
116
100
AcDbEntity
8
0
100
AcDbLine
10
-25.059483865926197
20
-26.062812921755327
30
0
11
-25.863110929415903
21
-26.866439985244934
31
0
0
LINE
5
117
100
AcDbEntity
8
0
100
AcDbLine
10
-25.863110929415903
20
-26.866439985244934
30
0
11
26.503331224463697
21
-26.866439985244934
31
0
0
SPLINE
5
118
100
AcDbEntity
8
0
100
AcDbSpline
70
0
71
3
72
10
73
6
74
0
42
0.000000001
43
0.0000000001
44
0.0000000001
40
-0.056791679074896503
40
-0.056791679074896503
40
-0.056791679074896503
40
-0.056791679074896503
40
-0.040565485053497503
40
-0.0243392910320985
40
0
40
0
40
0
40
0
10
26.866439985244899
20
-26.503331224463533
30
0
10
26.866439985244899
20
-26.557418537868234
30
0
10
26.8419744141341
20
-26.666401218903832
30
0
10
26.720183078168503
20
-26.819520033681332
30
0
10
26.584462194570705
20
-26.866439985244934
30
0
10
26.5033312244637
20
-26.866439985244934
30
0
0
LINE
5
119
100
AcDbEntity
8
0
100
AcDbLine
10
26.866439985244899
20
-26.503331224463533
30
0
11
26.866439985244899
21
25.863110929415434
31
0
0
LINE
5
120
100
AcDbEntity
8
0
100
AcDbLine
10
26.866439985244899
20
25.863110929415434
30
0
11
26.062812921755505
21
25.059483865926033
31
0
0
ARC
5
121
100
AcDbEntity
8
0
100
AcDbCircle
10
23.5
20
23.500000000000121
30
-6.8422776578360209e-47
40
2.9999999999999978
210
2.5629496961497064e-32
220
-4.2118810861836167e-32
230
1
100
AcDbArc
50
-75.564149882160706
51
31.320711788118142
0
LINE
5
122
100
AcDbEntity
8
0
100
AcDbLine
10
24.247887650319289
20
20.594717903111786
30
-1.4153501140051797e-31
11
24.247887650319303
21
19.556250000000126
31
0
0
ARC
5
123
100
AcDbEntity
8
0
100
AcDbCircle
10
23.500000000000099
20
19.500000000000117
30
0
40
0.75
210
0
220
0
230
1
100
AcDbArc
50
-184.30122230467097
51
4.3012223046711364
0
LINE
5
124
100
AcDbEntity
8
0
100
AcDbLine
10
22.752112349680882
20
19.556250000000126
30
0
11
22.7521123496808
21
20.594717903111722
31
0
0
ARC
5
125
100
AcDbEntity
8
0
100
AcDbCircle
10
23.5
20
23.500000000000121
30
-6.8422776578360209e-47
40
3.0000000000000036
210
2.2083356182438287e-47
220
5.7018980481967501e-48
230
1
100
AcDbArc
50
194.47751218593012
51
255.56414988216264
0
LINE
5
126
100
AcDbEntity
8
0
100
AcDbLine
10
20.595262490344439
20
22.75000000000011
30
0
11
19.5
21
22.750000000000131
31
0
0
ARC
5
127
100
AcDbEntity
8
0
100
AcDbCircle
10
19.5
20
23.500000000000124
30
0
40
0.74999999999999911
210
0
220
-0
230
1
100
AcDbArc
50
85.698777695329753
51
270
0
LINE
5
128
100
AcDbEntity
8
0
100
AcDbLine
10
19.556249999999999
20
24.247887650319342
30
0
11
20.5947179031117
21
24.247887650319328
31
0
0
ARC
5
129
100
AcDbEntity
8
0
100
AcDbCircle
10
23.5
20
23.500000000000121
30
-6.8422776578360209e-47
40
3.000000000000036
210
-1.1856024015089189e-47
220
-1.9483863995267536e-47
230
1
100
AcDbArc
50
58.679288211882159
51
165.56414988216207
0
CIRCLE
5
130
100
AcDbEntity
8
0
100
AcDbCircle
10
18.000000000000007
20
9.4705466342423715e-15
30
0
40
3.5000000000000049
210
0
220
-0
230
1
0
LWPOLYLINE
5
131
100
AcDbEntity
8
0
100
AcDbPolyline
90
4
70
1
43
0.0
10
-24.249999999999979
20
6.7500000000000195
10
6.2500000000000178
20
6.7500000000000178
10
6.2500000000000213
20
-9.0000000000000053
10
-24.249999999999979
20
-9.0000000000000071
0
LINE
5
132
100
AcDbEntity
8
0
100
AcDbLine
10
16.866439985244902
20
26.866439985244931
30
0
11
16.866439985244895
21
16.866439985244931
31
0
0
LINE
5
133
100
AcDbEntity
8
0
100
AcDbLine
10
16.866439985244895
20
16.866439985244931
30
0
11
26.866439985244899
21
16.866439985244931
31
0
0
LINE
5
134
100
AcDbEntity
8
0
100
AcDbLine
10
-26.866439985244899
20
-16.866439985244931
30
0
11
-16.866439985244899
21
-16.866439985244934
31
0
0
LINE
5
135
100
AcDbEntity
8
0
100
AcDbLine
10
-16.866439985244899
20
-16.866439985244934
30
0
11
-16.866439985244895
21
-26.866439985244934
31
0
0
ENDSEC
0
SECTION
2
OBJECTS
0
DICTIONARY
5
C
100
AcDbDictionary
3
ACAD_GROUP
350
D
3
ACAD_MLINESTYLE
350
17
0
DICTIONARY
5
D
100
AcDbDictionary
0
DICTIONARY
5
1A
330
C
100
AcDbDictionary
0
DICTIONARY
5
17
100
AcDbDictionary
0
ENDSEC
0
EOF
